<?xml version="1.0" encoding="utf-8"?>
<!-- Generator: Adobe Illustrator 21.1.0, SVG Export Plug-In . SVG Version: 6.00 Build 0)  -->
<svg version="1.1" id="Layer_1" xmlns="http://www.w3.org/2000/svg" xmlns:xlink="http://www.w3.org/1999/xlink" x="0px" y="0px"
	 viewBox="0 0 374.8 667.2" style="enable-background:new 0 0 374.8 667.2;" xml:space="preserve">
<style type="text/css">
	.st0{fill:url(#SVGID_1_);}
	.st1{opacity:0.9;fill:url(#SVGID_2_);}
</style>
<linearGradient id="SVGID_1_" gradientUnits="userSpaceOnUse" x1="1.36" y1="364.2391" x2="374.7826" y2="364.2391" gradientTransform="matrix(1.0025 8.811209e-05 8.811244e-05 1 -0.9938 -3.424849e-02)">
	<stop  offset="0" style="stop-color:#FFF33B;stop-opacity:0.5"/>
	<stop  offset="0.1276" style="stop-color:#FFE029;stop-opacity:0.5"/>
	<stop  offset="0.2795" style="stop-color:#FFD218;stop-opacity:0.5"/>
	<stop  offset="0.436" style="stop-color:#FEC90F;stop-opacity:0.5"/>
	<stop  offset="0.6027" style="stop-color:#FDC70C;stop-opacity:0.5"/>
	<stop  offset="1" style="stop-color:#F3903F;stop-opacity:0.5"/>
</linearGradient>
<polygon class="st0" points="374.7,61.3 368.7,667.2 0.4,68.7 "/>
<linearGradient id="SVGID_2_" gradientUnits="userSpaceOnUse" x1="0" y1="61.3043" x2="374.7826" y2="61.3043">
	<stop  offset="0" style="stop-color:#FFF33B"/>
	<stop  offset="0.1297" style="stop-color:#FFE029"/>
	<stop  offset="0.2841" style="stop-color:#FFD218"/>
	<stop  offset="0.4431" style="stop-color:#FEC90F"/>
	<stop  offset="0.6126" style="stop-color:#FDC70C"/>
	<stop  offset="1" style="stop-color:#F3903F"/>
</linearGradient>
<ellipse class="st1" cx="187.4" cy="61.3" rx="187.4" ry="61.3"/>
<g>
	<path d="M42.4,36.8h6.3v41.4h-6.3V36.8z M49.9,51.7h4.3V36.8h6.3v41.4h-6.3V61.9h-4.3V51.7z"/>
	<path d="M64.5,36.8h6v41.4h-6V36.8z M80.9,36.8v9.8h-9.2v-9.8H80.9z M71.7,52.2H78v9.3h-6.3V52.2z M71.7,68.3h9.2v9.9h-9.2V68.3z"
		/>
	<path d="M84.2,78.2V36.8h6v41.4H84.2z M91.5,64.4v-9h1.9c1.6,0,2.3-1.2,2.3-4.6c0-3-0.5-4.4-2.3-4.4h-1.9v-9.6h1.8
		c6.1,0,8.7,3.1,8.7,11c0,5.9-1.1,8.6-3.3,9.7v0.1c2.7,0.9,3.2,4.3,3.2,8.7c0.1,6.7,0.1,8.1,0.4,11.5v0.4h-6.4
		c-0.1-3.5-0.2-6.1-0.2-8.9c0-3.6-0.3-5-3.2-5H91.5z"/>
	<path d="M113.6,69.9v9.6c-1.9-0.2-4.1-1.1-5.8-4.3c-1.9-3.4-2.9-8.9-2.9-17.7s1.1-14.3,2.9-17.7c1.7-3.1,3.9-4.1,5.8-4.3v9.6
		c-0.7,0.2-1.2,1.1-1.5,2.1c-0.6,2-0.8,5.7-0.8,10.3s0.3,8.3,0.8,10.3C112.4,68.9,112.8,69.6,113.6,69.9z M114.8,79.5v-9.6
		c0.7-0.3,1.2-1.1,1.5-2.1c0.6-2,0.8-5.7,0.8-10.3s-0.3-8.3-0.8-10.3c-0.3-1-0.8-1.8-1.5-2.1v-9.6c1.9,0.2,4.1,1.1,5.8,4.3
		c1.9,3.4,2.9,8.9,2.9,17.7s-1.1,14.3-2.9,17.7C118.9,78.4,116.7,79.3,114.8,79.5z"/>
	<path d="M126.8,36.8h6.3v41.4h-6.3V36.8z"/>
	<path d="M145.1,79.5c-1.9-0.2-4-1.1-5.7-4.3c-1.9-3.4-2.9-8.9-2.9-17.7s1.1-14.3,2.9-17.7c1.7-3.1,3.8-4.1,5.7-4.2v9.5
		c-1.5,0.7-2.3,4.3-2.3,12.4c0,8.2,0.7,11.8,2.3,12.4V79.5z M146.3,45.1v-9.5c1.7,0.1,4,0.9,5.8,4.2c1.2,2.2,2,5.3,2.4,10.2l-6,2
		C148.1,47.2,147.7,45.6,146.3,45.1z M146.3,79.4v-9.5c1.3-0.5,1.9-2.1,2.3-7.5l6,2c-0.5,5.3-1.2,8.5-2.5,10.9
		C150.5,78.3,148.3,79.3,146.3,79.4z"/>
	<path d="M169.6,36.8l4.4,41.4h-6.6L163,36.8H169.6z M178.6,36.8l4.6,41.3h-4.6l-2.3-19.9h0l-1.6,13.7h0l-2.2-20.8l1.6-14.3H178.6z
		 M184.5,78.2l-2.8-24.4l1.5-17h6.4l-4.4,41.4H184.5z"/>
	<path d="M192.1,36.8h6v41.4h-6V36.8z M208.5,36.8v9.8h-9.2v-9.8H208.5z M199.3,52.2h6.3v9.3h-6.3V52.2z M199.3,68.3h9.2v9.9h-9.2
		V68.3z"/>
	<path d="M211.8,36.8h6v41.4h-6V36.8z M220.9,53.7c1.7,0,2.3-1.2,2.3-3.9c0-2.7-0.5-4-2.2-4H219v-9h1.8c7,0,8.5,4,8.5,10.6
		c0,5-1.1,7.7-3,9.1v0.1c2.7,1.2,3.3,4.7,3.3,9.9c0,8-2.3,11.6-7.6,11.6h-3v-9.3h2.2c1.7,0,2.3-0.9,2.3-3.8c0-2.6-0.6-3.9-2.4-3.9
		h-2v-7.4H220.9z"/>
	<path d="M240.8,79.5c-1.9-0.2-4-1.1-5.7-4.3c-1.9-3.4-2.9-8.9-2.9-17.7s1.1-14.3,2.9-17.7c1.7-3.1,3.8-4.1,5.7-4.2v9.5
		c-1.5,0.7-2.3,4.3-2.3,12.4c0,8.2,0.7,11.8,2.3,12.4V79.5z M242.1,45.1v-9.5c1.7,0.1,4,0.9,5.8,4.2c1.2,2.2,2,5.3,2.4,10.2l-6,2
		C243.9,47.2,243.4,45.6,242.1,45.1z M242.1,79.4v-9.5c1.3-0.5,1.9-2.1,2.3-7.5l6,2c-0.5,5.3-1.2,8.5-2.5,10.9
		C246.2,78.3,244,79.3,242.1,79.4z"/>
	<path d="M253.2,78.2V36.8h6v41.4H253.2z M260.5,64.4v-9h1.9c1.6,0,2.3-1.2,2.3-4.6c0-3-0.5-4.4-2.3-4.4h-1.9v-9.6h1.8
		c6.1,0,8.7,3.1,8.7,11c0,5.9-1.1,8.6-3.3,9.7v0.1c2.7,0.9,3.2,4.3,3.2,8.7c0.1,6.7,0.1,8.1,0.4,11.5v0.4h-6.4
		c-0.1-3.5-0.2-6.1-0.2-8.9c0-3.6-0.3-5-3.2-5H260.5z"/>
	<path d="M281.8,58.6l-2.9,19.6h-6.3l6-39.8h0L281.8,58.6z M286.1,36.8l6.3,41.4h-6.3l-0.8-5h-4.4l1.2-7.7h2l-4.4-28.7H286.1z"/>
	<path d="M294.4,36.8h6.3v41.4h-6.3V36.8z M301.9,46.9V36.8h8v10.1H301.9z M301.9,53.1h6.3v9.7h-6.3V53.1z"/>
	<path d="M311.8,47V36.8h17.3V47H311.8z M323.6,49.4v28.8h-6.3V49.4H323.6z"/>
</g>
</svg>
